<svg width="82" height="26" viewBox="0 0 82 26" fill="none" xmlns="http://www.w3.org/2000/svg">
<g clip-path="url(#clip0_2037_46214)">
<path d="M22.3273 14.4858C22.3273 14.4858 21.0875 17.5953 19.5422 17.4517C18.7011 17.3738 18.4351 16.6735 18.4362 16.2453L18.4554 5.66992H14.2774V16.5057C14.2738 18.2724 15.5395 19.8887 17.7802 19.9924C19.8891 20.0903 22.3237 16.9329 22.3237 16.9329L22.3195 19.653L26.4777 19.6183L26.5031 5.67202H22.3465L22.3273 14.4858Z" fill="#E36E64"/>
<path d="M8.03802 18.3524C8.03802 20.1668 6.54519 21.6373 4.70323 21.6373C2.86125 21.6373 1.36842 20.1668 1.36842 18.3524C1.36842 18.302 1.37021 18.2522 1.37245 18.2028C1.42661 18.9458 2.05508 19.5318 2.8232 19.5318C3.60028 19.5318 4.23501 18.9318 4.27574 18.176H4.27798V14.0311H0.0703125V18.176C0.0823984 21.502 2.8232 24.1948 6.20276 24.1948C9.57471 24.1948 12.3106 21.5139 12.3347 18.198L12.3352 1.79492H8.03802V18.1539V18.3524Z" fill="#E36E64"/>
<path d="M36.2827 5.73344C34.7525 5.73081 33.4054 6.50475 32.4798 7.68014L32.4647 5.67188H28.3246L28.293 25.0484L32.4518 25.0552L32.4606 18.0413C33.2238 19.1672 34.6473 20.0265 36.2568 20.0296C39.1333 20.0349 41.645 17.068 41.6528 12.8916C41.6606 8.71505 39.1592 5.73869 36.2827 5.73344ZM34.9678 18.1965C33.9385 18.1965 32.8588 16.9449 32.4647 15.9268L32.4756 9.82362C32.8734 8.80712 33.9571 7.56123 34.9859 7.56123C36.4638 7.56386 37.1472 9.32168 37.1405 12.8826C37.1337 16.4435 36.4451 18.1992 34.9678 18.1965Z" fill="#E36E64"/>
<path d="M43.1484 19.7061H47.3031L47.329 5.67188H43.1484V19.7061Z" fill="#E36E64"/>
<path d="M63.1339 5.70117C58.9119 5.70117 56.2937 8.9811 56.2891 12.8366C56.2813 17.0131 59.209 19.8263 62.8461 19.9973C64.5106 20.0752 66.8265 19.0239 67.9279 17.8765L67.2532 16.8868C65.0566 18.812 64.0797 18.5788 64.0797 18.5788C61.3356 18.5741 60.8465 16.4038 60.8538 12.6824L68.9276 12.6972C68.715 8.26555 66.1752 5.70064 63.1339 5.70117ZM64.8902 11.3908L60.8548 11.3835C60.859 9.18788 61.4683 6.42409 63.1307 6.42409C64.4101 6.42409 65.0276 9.59352 64.8902 11.3908Z" fill="#E36E64"/>
<path d="M56.7067 5.60162L54.4163 5.59531L54.4236 0.931641L48.4219 6.92222L50.1896 6.92644L50.2021 19.6873H54.381L54.4132 6.89644L56.7037 6.90275L56.7067 5.60162Z" fill="#E36E64"/>
<path d="M77.7693 5.55516C76.4807 5.93398 75.2471 6.97573 74.4029 8.028L74.407 5.61619H70.2266V19.6503H72.4325L74.3848 19.654L74.3982 10.5818V10.161C74.962 9.19498 75.9482 7.81965 76.9573 7.9133C77.6314 7.97644 78.1914 8.72724 78.194 9.41911L81.0947 6.53588C81.1503 6.47906 79.4909 5.05008 77.7693 5.55516Z" fill="#E36E64"/>
</g>
<defs>
<clipPath id="clip0_2037_46214">
<rect width="82" height="26" fill="white"/>
</clipPath>
</defs>
</svg>
